<?xml version="1.0" encoding="UTF-8" standalone="no"?>
<!-- Created with Inkscape (http://www.inkscape.org/) -->

<svg
   xmlns:dc="http://purl.org/dc/elements/1.1/"
   xmlns:cc="http://creativecommons.org/ns#"
   xmlns:rdf="http://www.w3.org/1999/02/22-rdf-syntax-ns#"
   xmlns:svg="http://www.w3.org/2000/svg"
   xmlns="http://www.w3.org/2000/svg"
   xmlns:xlink="http://www.w3.org/1999/xlink"
   xmlns:sodipodi="http://sodipodi.sourceforge.net/DTD/sodipodi-0.dtd"
   xmlns:inkscape="http://www.inkscape.org/namespaces/inkscape"
   width="200"
   height="260"
   id="svg21211"
   sodipodi:version="0.32"
   inkscape:version="0.48.3.1 r9886"
   version="1.0"
   sodipodi:docname="ben_Software_Box.svg"
   inkscape:output_extension="org.inkscape.output.svg.inkscape">
  <defs
     id="defs21213">
    <filter
       inkscape:collect="always"
       id="filter18874">
      <feGaussianBlur
         inkscape:collect="always"
         stdDeviation="0.34304377"
         id="feGaussianBlur18876" />
    </filter>
    <linearGradient
       inkscape:collect="always"
       xlink:href="#white"
       id="linearGradient21209"
       gradientUnits="userSpaceOnUse"
       x1="60"
       y1="20"
       x2="90"
       y2="50" />
    <linearGradient
       gradientUnits="userSpaceOnUse"
       id="blck">
      <stop
         id="stop18957"
         offset="0"
         style="stop-color:#000;stop-opacity:1" />
      <stop
         id="stop18959"
         offset="1"
         style="stop-color:#000;stop-opacity:0" />
    </linearGradient>
    <linearGradient
       inkscape:collect="always"
       xlink:href="#blck"
       id="linearGradient21207"
       gradientUnits="userSpaceOnUse"
       x1="0"
       y1="128"
       x2="0"
       y2="64" />
    <linearGradient
       inkscape:collect="always"
       xlink:href="#white"
       id="linearGradient21205"
       gradientUnits="userSpaceOnUse"
       x1="33"
       y1="35"
       x2="58"
       y2="60" />
    <linearGradient
       gradientUnits="userSpaceOnUse"
       y2="40"
       x2="60"
       y1="20"
       x1="80"
       xlink:href="#white"
       id="sideSpecular" />
    <linearGradient
       gradientUnits="userSpaceOnUse"
       id="white">
      <stop
         id="stop18952"
         offset="0"
         style="stop-color:#fff;stop-opacity:1" />
      <stop
         id="stop18954"
         offset="1"
         style="stop-color:#fff;stop-opacity:0" />
    </linearGradient>
    <linearGradient
       gradientUnits="userSpaceOnUse"
       y2="76"
       x2="0"
       y1="128"
       x1="0"
       xlink:href="#white"
       id="liquidSpecular" />
    <clipPath
       id="clipoutline1"
       clipPathUnits="userSpaceOnUse">
      <path
         d="M 54.1,12.5 L 12.9,54.7 C -2.7,70.3 23,69 32.3,74.9 C 36.6,77.7 18.5,81.3 22.2,85 C 25.8,88.7 43.9,92.1 47.5,95.7 C 51.1,99.4 40.2,103.3 43.8,107 C 47.3,110.7 55.7,107.2 57.2,115.6 C 58.3,121.8 72.6,118.7 79,113.4 C 83,110 72.1,110 75.7,106.3 C 84.7,97.2 92.7,102.2 96,93.8 C 97.8,89.3 82.4,86.1 86.5,83.2 C 96.3,76.3 132.3,72.8 115.7,56.2 L 73,12.5 C 67.7,7.5 59,7.5 54.1,12.5 z M 44.2,77.2 C 45.1,77.2 75,81.2 63.5,84.3 C 59.1,85.5 38.9,77.2 44.2,77.2 z M 101.4,93.8 C 101.4,95.9 117.7,97.1 116.8,93.3 C 115.5,86.9 103.2,87.4 101.4,93.8 z M 31.9,104.9 C 35.6,108.1 41.2,104.2 43,99.7 C 39.4,95 26.1,100 31.9,104.9 z M 99.4,98.2 C 94.8,102.4 100.2,106.8 104.7,103.9 C 105.9,103.1 104.6,99.2 99.4,98.2 z "
         id="outline1" />
    </clipPath>
    <filter
       y="0"
       x="0"
       filterUnits="userSpaceOnUse"
       id="ShadowBlur">
      <feGaussianBlur
         id="feGaussianBlur18969"
         result="blur"
         stdDeviation="3"
         in="SourceAlpha" />
    </filter>
    <linearGradient
       id="linearGradient9014">
      <stop
         style="stop-color:#869329;stop-opacity:1;"
         offset="0"
         id="stop9016" />
      <stop
         style="stop-color:#869329;stop-opacity:1;"
         offset="1"
         id="stop9018" />
    </linearGradient>
    <linearGradient
       inkscape:collect="always"
       xlink:href="#linearGradient9014"
       id="linearGradient21203"
       gradientUnits="userSpaceOnUse"
       gradientTransform="matrix(1.8358902,0,0,1.8358902,-265.78266,-285.45325)"
       x1="270.22089"
       y1="426.57266"
       x2="281.32242"
       y2="433.64374" />
    <linearGradient
       id="linearGradient8025">
      <stop
         style="stop-color:#b0c522;stop-opacity:1;"
         offset="0"
         id="stop8027" />
      <stop
         style="stop-color:#9daf1a;stop-opacity:1;"
         offset="1"
         id="stop8029" />
    </linearGradient>
    <linearGradient
       inkscape:collect="always"
       xlink:href="#linearGradient8025"
       id="linearGradient21201"
       gradientUnits="userSpaceOnUse"
       gradientTransform="matrix(1.8358902,0,0,1.8358902,-449.37168,-285.45325)"
       x1="379.30719"
       y1="433.13867"
       x2="465.67523"
       y2="433.13867" />
    <linearGradient
       id="linearGradient6075">
      <stop
         style="stop-color:#a9bd1d;stop-opacity:1;"
         offset="0"
         id="stop6077" />
      <stop
         style="stop-color:#93a22d;stop-opacity:1;"
         offset="1"
         id="stop6079" />
    </linearGradient>
    <linearGradient
       inkscape:collect="always"
       xlink:href="#linearGradient6075"
       id="linearGradient21199"
       gradientUnits="userSpaceOnUse"
       gradientTransform="matrix(1.8358902,0,0,1.8358902,-265.78266,-248.73545)"
       x1="266.55399"
       y1="349.12024"
       x2="365.92776"
       y2="349.12024" />
    <filter
       inkscape:collect="always"
       x="-0.029137833"
       width="1.0582757"
       y="-0.13610952"
       height="1.2722189"
       id="filter12921">
      <feGaussianBlur
         inkscape:collect="always"
         stdDeviation="1.1108522"
         id="feGaussianBlur12923" />
    </filter>
    <filter
       inkscape:collect="always"
       x="-0.26697353"
       width="1.533947"
       y="-0.21797682"
       height="1.4359537"
       id="filter14892">
      <feGaussianBlur
         inkscape:collect="always"
         stdDeviation="2.2792624"
         id="feGaussianBlur14894" />
    </filter>
    <linearGradient
       inkscape:collect="always"
       xlink:href="#linearGradient6075"
       id="linearGradient21461"
       gradientUnits="userSpaceOnUse"
       gradientTransform="matrix(1.8358902,0,0,1.8358902,-265.78266,-248.73545)"
       x1="266.55399"
       y1="349.12024"
       x2="365.92776"
       y2="349.12024" />
    <linearGradient
       inkscape:collect="always"
       xlink:href="#linearGradient8025"
       id="linearGradient21463"
       gradientUnits="userSpaceOnUse"
       gradientTransform="matrix(1.8358902,0,0,1.8358902,-449.37168,-285.45325)"
       x1="379.30719"
       y1="433.13867"
       x2="465.67523"
       y2="433.13867" />
    <linearGradient
       inkscape:collect="always"
       xlink:href="#linearGradient9014"
       id="linearGradient21465"
       gradientUnits="userSpaceOnUse"
       gradientTransform="matrix(1.8358902,0,0,1.8358902,-265.78266,-285.45325)"
       x1="270.22089"
       y1="426.57266"
       x2="281.32242"
       y2="433.64374" />
    <linearGradient
       inkscape:collect="always"
       xlink:href="#linearGradient9014"
       id="linearGradient21468"
       gradientUnits="userSpaceOnUse"
       gradientTransform="matrix(1.8358902,0,0,1.8358902,-853.8731,-642.96191)"
       x1="270.22089"
       y1="426.57266"
       x2="281.32242"
       y2="433.64374" />
    <linearGradient
       inkscape:collect="always"
       xlink:href="#linearGradient8025"
       id="linearGradient21471"
       gradientUnits="userSpaceOnUse"
       gradientTransform="matrix(1.8358902,0,0,1.8358902,-1037.4621,-642.96191)"
       x1="379.30719"
       y1="433.13867"
       x2="465.67523"
       y2="433.13867" />
    <linearGradient
       inkscape:collect="always"
       xlink:href="#linearGradient6075"
       id="linearGradient21474"
       gradientUnits="userSpaceOnUse"
       gradientTransform="matrix(1.8358902,0,0,1.8358902,-853.8731,-606.24411)"
       x1="269.71552"
       y1="349.5032"
       x2="362.76398"
       y2="348.15735" />
    <linearGradient
       inkscape:collect="always"
       xlink:href="#linearGradient8025"
       id="linearGradient21478"
       gradientUnits="userSpaceOnUse"
       gradientTransform="matrix(1.8358902,0,0,1.8358902,-997.46212,-644.96191)"
       x1="379.30719"
       y1="433.13867"
       x2="465.67523"
       y2="433.13867" />
    <filter
       inkscape:collect="always"
       x="-0.069527444"
       width="1.1390549"
       y="-0.4378558"
       height="1.8757116"
       id="filter22449">
      <feGaussianBlur
         inkscape:collect="always"
         stdDeviation="4.5249296"
         id="feGaussianBlur22451" />
    </filter>
    <linearGradient
       inkscape:collect="always"
       xlink:href="#linearGradient6075"
       id="linearGradient22458"
       gradientUnits="userSpaceOnUse"
       gradientTransform="matrix(1.8358902,0,0,1.8358902,-853.8731,-606.24411)"
       x1="269.71552"
       y1="349.5032"
       x2="362.76398"
       y2="348.15735" />
    <linearGradient
       inkscape:collect="always"
       xlink:href="#linearGradient8025"
       id="linearGradient22460"
       gradientUnits="userSpaceOnUse"
       gradientTransform="matrix(1.8358902,0,0,1.8358902,-1037.4621,-642.96191)"
       x1="379.30719"
       y1="433.13867"
       x2="465.67523"
       y2="433.13867" />
    <linearGradient
       inkscape:collect="always"
       xlink:href="#linearGradient9014"
       id="linearGradient22462"
       gradientUnits="userSpaceOnUse"
       gradientTransform="matrix(1.8358902,0,0,1.8358902,-853.8731,-642.96191)"
       x1="270.22089"
       y1="426.57266"
       x2="281.32242"
       y2="433.64374" />
    <linearGradient
       inkscape:collect="always"
       xlink:href="#linearGradient6075"
       id="linearGradient22471"
       gradientUnits="userSpaceOnUse"
       gradientTransform="matrix(1.8358902,0,0,1.8358902,-853.8731,-606.24411)"
       x1="269.71552"
       y1="349.5032"
       x2="362.76398"
       y2="348.15735" />
    <linearGradient
       inkscape:collect="always"
       xlink:href="#linearGradient8025"
       id="linearGradient22473"
       gradientUnits="userSpaceOnUse"
       gradientTransform="matrix(1.8358902,0,0,1.8358902,-1037.4621,-642.96191)"
       x1="379.30719"
       y1="433.13867"
       x2="465.67523"
       y2="433.13867" />
    <linearGradient
       inkscape:collect="always"
       xlink:href="#linearGradient9014"
       id="linearGradient22475"
       gradientUnits="userSpaceOnUse"
       gradientTransform="matrix(1.8358902,0,0,1.8358902,-853.8731,-642.96191)"
       x1="270.22089"
       y1="426.57266"
       x2="281.32242"
       y2="433.64374" />
    <linearGradient
       inkscape:collect="always"
       xlink:href="#linearGradient8025"
       id="linearGradient22477"
       gradientUnits="userSpaceOnUse"
       gradientTransform="matrix(1.8358902,0,0,1.8358902,-997.46212,-644.96191)"
       x1="379.30719"
       y1="433.13867"
       x2="465.67523"
       y2="433.13867" />
  </defs>
  <sodipodi:namedview
     id="base"
     pagecolor="#ffffff"
     bordercolor="#666666"
     borderopacity="1.0"
     inkscape:pageopacity="0.0"
     inkscape:pageshadow="2"
     inkscape:zoom="0.7"
     inkscape:cx="219.07395"
     inkscape:cy="72.609624"
     inkscape:document-units="px"
     inkscape:current-layer="layer1"
     inkscape:window-width="956"
     inkscape:window-height="753"
     inkscape:window-x="0"
     inkscape:window-y="15"
     showgrid="false"
     inkscape:window-maximized="0" />
  <metadata
     id="metadata21216">
    <rdf:RDF>
      <cc:Work
         rdf:about="">
        <dc:format>image/svg+xml</dc:format>
        <dc:type
           rdf:resource="http://purl.org/dc/dcmitype/StillImage" />
        <dc:title>Box</dc:title>
        <dc:creator>
          <cc:Agent>
            <dc:title>Benjamin Pavie</dc:title>
          </cc:Agent>
        </dc:creator>
        <dc:subject>
          <rdf:Bag>
            <rdf:li>box</rdf:li>
            <rdf:li>software</rdf:li>
          </rdf:Bag>
        </dc:subject>
        <cc:license
           rdf:resource="http://web.resource.org/cc/PublicDomain" />
      </cc:Work>
      <cc:License
         rdf:about="http://web.resource.org/cc/PublicDomain">
        <cc:permits
           rdf:resource="http://web.resource.org/cc/Reproduction" />
        <cc:permits
           rdf:resource="http://web.resource.org/cc/Distribution" />
        <cc:permits
           rdf:resource="http://web.resource.org/cc/DerivativeWorks" />
      </cc:License>
    </rdf:RDF>
  </metadata>
  <g
     inkscape:label="Calque 1"
     inkscape:groupmode="layer"
     id="layer1"
     transform="translate(-45.469521,-16.64789)">
    <rect
       style="opacity:1;color:#000000;fill:#ffffff;fill-opacity:1;fill-rule:evenodd;stroke:none;stroke-width:1px;stroke-linecap:butt;stroke-linejoin:miter;marker:none;marker-start:none;marker-mid:none;marker-end:none;stroke-miterlimit:4;stroke-dasharray:none;stroke-dashoffset:0;stroke-opacity:1;visibility:visible;display:inline;overflow:visible;enable-background:accumulate"
       id="rect20228"
       width="200"
       height="260"
       x="45.469521"
       y="16.64789"
       inkscape:export-filename="/tmp/box.png"
       inkscape:export-xdpi="69.230003"
       inkscape:export-ydpi="69.230003" />
    <rect
       style="opacity:1;color:#000000;fill:#a9bd1d;fill-opacity:1;fill-rule:evenodd;stroke:#000000;stroke-width:1px;stroke-linecap:butt;stroke-linejoin:miter;marker:none;marker-start:none;marker-mid:none;marker-end:none;stroke-miterlimit:4;stroke-dasharray:none;stroke-dashoffset:0;stroke-opacity:1;visibility:visible;display:inline;overflow:visible;enable-background:accumulate"
       id="rect5102"
       width="20.203051"
       height="15.657365"
       x="302.00763"
       y="111.52858" />
    <rect
       style="opacity:1;color:#000000;fill:#93a22d;fill-opacity:1;fill-rule:evenodd;stroke:#000000;stroke-width:1px;stroke-linecap:butt;stroke-linejoin:miter;marker:none;marker-start:none;marker-mid:none;marker-end:none;stroke-miterlimit:4;stroke-dasharray:none;stroke-dashoffset:0;stroke-opacity:1;visibility:visible;display:inline;overflow:visible;enable-background:accumulate"
       id="rect5104"
       width="23.738585"
       height="16.162441"
       x="330.2919"
       y="111.02351" />
    <rect
       style="opacity:1;color:#000000;fill:#b0c522;fill-opacity:1;fill-rule:evenodd;stroke:#000000;stroke-width:1px;stroke-linecap:butt;stroke-linejoin:miter;marker:none;marker-start:none;marker-mid:none;marker-end:none;stroke-miterlimit:4;stroke-dasharray:none;stroke-dashoffset:0;stroke-opacity:1;visibility:visible;display:inline;overflow:visible;enable-background:accumulate"
       id="rect7052"
       width="20.203051"
       height="15.657365"
       x="302.00763"
       y="131.52858" />
    <rect
       style="opacity:1;color:#000000;fill:#9daf1a;fill-opacity:1;fill-rule:evenodd;stroke:#000000;stroke-width:1px;stroke-linecap:butt;stroke-linejoin:miter;marker:none;marker-start:none;marker-mid:none;marker-end:none;stroke-miterlimit:4;stroke-dasharray:none;stroke-dashoffset:0;stroke-opacity:1;visibility:visible;display:inline;overflow:visible;enable-background:accumulate"
       id="rect7054"
       width="23.738585"
       height="16.162441"
       x="330.2919"
       y="131.02351" />
    <rect
       style="opacity:1;color:#000000;fill:#869329;fill-opacity:1;fill-rule:evenodd;stroke:#000000;stroke-width:1px;stroke-linecap:butt;stroke-linejoin:miter;marker:none;marker-start:none;marker-mid:none;marker-end:none;stroke-miterlimit:4;stroke-dasharray:none;stroke-dashoffset:0;stroke-opacity:1;visibility:visible;display:inline;overflow:visible;enable-background:accumulate"
       id="rect8033"
       width="20.203051"
       height="15.657365"
       x="302.00763"
       y="171.52858" />
    <rect
       style="opacity:1;color:#000000;fill:#91a216;fill-opacity:1;fill-rule:evenodd;stroke:#000000;stroke-width:1px;stroke-linecap:butt;stroke-linejoin:miter;marker:none;marker-start:none;marker-mid:none;marker-end:none;stroke-miterlimit:4;stroke-dasharray:none;stroke-dashoffset:0;stroke-opacity:1;visibility:visible;display:inline;overflow:visible;enable-background:accumulate"
       id="rect8035"
       width="23.738585"
       height="16.162441"
       x="330.2919"
       y="171.02351" />
    <g
       id="g22464"
       transform="translate(380,0)">
      <g
         transform="translate(40,0)"
         id="g22453">
        <path
           inkscape:connector-curvature="0"
           style="fill:url(#linearGradient22471);fill-opacity:1;fill-rule:evenodd;stroke:none"
           d="m -364.33536,34.47052 23.06572,15.58967 158.98086,-16.42482 -32.46721,-10.98747 -149.57937,11.82262 z"
           id="path4127"
           sodipodi:nodetypes="ccccc" />
        <path
           inkscape:connector-curvature="0"
           style="fill:url(#linearGradient22473);fill-opacity:1;fill-rule:evenodd;stroke:none"
           d="m -189.95166,235.68695 -142.79873,35.23604 -8.34539,-221.61622 158.56224,-15.7635 -7.41812,202.14368 z"
           id="path4129"
           sodipodi:nodetypes="ccccc" />
        <path
           inkscape:connector-curvature="0"
           style="fill:url(#linearGradient22475);fill-opacity:1;fill-rule:evenodd;stroke:none"
           d="m -332.68371,270.94871 -23.2483,-36.18903 -8.34539,-200.28914 23.18162,14.83623 8.41207,221.64194 z"
           id="path4131"
           sodipodi:nodetypes="ccccc" />
      </g>
      <path
         inkscape:connector-curvature="0"
         sodipodi:nodetypes="ccccc"
         id="path21476"
         d="m -143.63821,35.251666 -155.67818,16.548218 -5.31492,-5.755805 155.78431,-13.490656 5.20879,2.698243 z"
         style="fill:url(#linearGradient22477);fill-opacity:1;fill-rule:evenodd;stroke:none;filter:url(#filter22449)" />
    </g>
    <path
       sodipodi:type="arc"
       style="fill:#a9a9a9;fill-opacity:1;fill-rule:evenodd;stroke:none;filter:url(#filter14892)"
       id="path13917"
       sodipodi:cx="275.01404"
       sodipodi:cy="481.87854"
       sodipodi:rx="8.3337584"
       sodipodi:ry="13.889598"
       d="m 283.3478,481.87854 a 8.3337584,13.889598 0 1 1 -16.66752,0 8.3337584,13.889598 0 1 1 16.66752,0 z"
       transform="matrix(1.6257002,-1.103878,1.0334973,1.7364097,-875.90526,-286.88067)" />
    <path
       inkscape:connector-curvature="0"
       style="fill:#696969;fill-opacity:1;fill-rule:evenodd;stroke:none;filter:url(#filter12921)"
       d="m 390.43678,478.87216 13.06885,19.85582 79.69156,-20.09258 -92.76041,0.23676 z"
       id="path11948"
       sodipodi:nodetypes="cccc"
       transform="matrix(1.8358902,0,0,1.8358902,-654.17992,-642.96191)" />
    <g
       id="g20175"
       transform="translate(-368.09044,-357.50866)">
      <path
         inkscape:connector-curvature="0"
         sodipodi:nodetypes="ccccc"
         d="m 599.964,554.77533 -1.85111,38.42256 -142.73703,35.2085 -1.96702,-42.35661 146.55516,-31.27445 z"
         style="fill:#dcdcdc;fill-rule:evenodd;stroke:none"
         id="path11944" />
      <path
         inkscape:connector-curvature="0"
         sodipodi:nodetypes="ccc"
         id="path11946"
         d="M 599.964,554.77533 453.59621,585.0324 430.64758,553.23216"
         style="fill:none;stroke:#4e4e4e;stroke-width:1.83589017px;stroke-linecap:butt;stroke-linejoin:miter;stroke-opacity:1" />
      <path
         inkscape:connector-curvature="0"
         sodipodi:nodetypes="ccccc"
         d="m 455.37586,628.40639 -23.21092,-35.07861 -1.63919,-39.40608 22.88309,32.12808 1.96702,42.35661 z"
         style="fill:#c0c0c0;fill-rule:evenodd;stroke:none"
         id="path13913" />
    </g>
    <text
       xml:space="preserve"
       x="124.88914"
       y="129.3414"
       id="text15865"
       style="font-size:18.45388603px;font-style:normal;font-variant:normal;font-weight:bold;font-stretch:normal;text-align:start;line-height:125%;writing-mode:lr-tb;text-anchor:start;fill:#ffffff;font-family:Bitstream Vera Sans Mono"
       transform="matrix(0.91031709,-0.1144065,0.0796421,1.0885091,0,0)"
       sodipodi:linespacing="125%"><tspan
         sodipodi:role="line"
         id="tspan15869"
         x="124.88914"
         y="129.3414">v. 0.12.06</tspan></text>
    <text
       xml:space="preserve"
       x="-140.87631"
       y="64.587425"
       id="text19024"
       transform="matrix(-0.06592807,-0.9978244,1.0550361,0.7999744,0,0)"
       style="font-size:9.17945099px;font-style:normal;font-variant:normal;font-weight:normal;font-stretch:normal;text-align:start;line-height:125%;writing-mode:lr-tb;text-anchor:start;font-family:Bitstream Vera Sans"
       sodipodi:linespacing="125%"><tspan
         sodipodi:role="line"
         id="tspan19026"
         x="-140.87631"
         y="64.587425">Generador WEB</tspan></text>
    <g
       id="g20169"
       transform="translate(-388.09044,-357.50866)">
      <path
         inkscape:connector-curvature="0"
         sodipodi:nodetypes="ccccc"
         d="m 625.45304,397.08331 -1.85111,45.76611 -154.67964,18.78276 -1.96703,-49.70018 158.49778,-14.84869 z"
         style="fill:#dcdcdc;fill-opacity:1;fill-rule:evenodd;stroke:none"
         id="path9999" />
      <path
         inkscape:connector-curvature="0"
         sodipodi:nodetypes="ccccc"
         d="m 468.92229,461.63218 -22.97795,-18.03105 -2.14697,-45.67821 23.15789,14.00908 1.96703,49.70018 z"
         style="fill:#c0c0c0;fill-opacity:1;fill-rule:evenodd;stroke:none"
         id="path13915" />
      <path
         inkscape:connector-curvature="0"
         sodipodi:nodetypes="ccccccc"
         id="path19196"
         d="m 444.03289,396.1734 23.10724,14.83662 158.21515,-14.83662 -0.0427,1.84206 -158.07739,14.87935 -23.13913,-14.7011 -0.0631,-2.02031 z"
         style="fill:#4e4e4e;fill-opacity:1;fill-rule:evenodd;stroke:none" />
      <path
         inkscape:connector-curvature="0"
         sodipodi:nodetypes="ccccccc"
         id="path20167"
         d="m 446.08646,443.85197 22.83938,17.33662 154.73301,-18.31876 -0.0427,1.84206 -154.59525,18.36149 -22.87127,-17.2011 -0.0631,-2.02031 z"
         style="fill:#4e4e4e;fill-opacity:1;fill-rule:evenodd;stroke:none" />
    </g>
    <text
       xml:space="preserve"
       x="89.011513"
       y="86.358536"
       id="text12925"
       style="font-size:18.45388603px;font-style:normal;font-variant:normal;font-weight:bold;font-stretch:normal;text-align:start;line-height:125%;writing-mode:lr-tb;text-anchor:start;fill:#2c5aa0;font-family:Bitstream Vera Sans"
       transform="matrix(0.9118388,-0.1015682,0.06429642,1.0895232,0,0)"
       sodipodi:linespacing="125%"><tspan
         sodipodi:role="line"
         id="tspan12927"
         x="89.011513"
         y="86.358536">Practico IDE</tspan></text>
    <path
       inkscape:connector-curvature="0"
       style="fill:#aa3131;fill-opacity:1;fill-rule:evenodd;stroke:none"
       d="M 59.8953,50.00221 73.57244,59.9703 73.34063,82.45647 59.66348,72.25656 59.8953,50.00221 z"
       id="path12938" />
    <path
       inkscape:connector-curvature="0"
       style="fill:#aa3131;fill-opacity:1;fill-rule:evenodd;stroke:none"
       d="m 196.20319,207.98491 31.99063,-6.95448 -1.50681,31.99063 -30.48382,8.22947 0,-33.26562 z"
       id="path13911"
       sodipodi:nodetypes="ccccc" />
    <path
       inkscape:connector-curvature="0"
       id="path15877"
       style="fill:#808080;fill-rule:evenodd;stroke:#7a7a7a;stroke-width:1;stroke-linecap:butt;stroke-linejoin:miter;stroke-miterlimit:4;stroke-opacity:1;stroke-dasharray:none;filter:url(#filter18874)"
       d="m 392.19649,480.8467 0,-9.21764 m 1.51523,11.8693 0,-9.21764 m 1.02042,10.81528 0,-9.21764 m 1.12615,10.77672 0,-9.21764 m 1.10343,11.50735 0,-9.21764 m 1.16941,11.47362 0,-9.21764 m 2.39912,12.50064 0,-9.21764 m -1.15525,7.68701 0,-9.21764"
       transform="matrix(1.8358902,0,0,1.8358902,-654.17992,-642.96191)" />
    <path
       style="fill:#000000;fill-opacity:1"
       d="m 142.70331,199.54658 c 2.02554,-0.51372 2.70849,-0.8342 3.06265,-1.4373 0.43081,-0.73366 0.40958,-0.82708 -0.38757,-1.7054 -0.81114,-0.89378 -1.45182,-1.14431 -1.32207,-0.51701 0.0342,0.1652 -0.59457,0.63998 -1.3972,1.05508 -1.72421,0.89171 -2.37129,0.70213 -3.08877,-0.90493 l -0.46377,-1.0388 -0.1458,1.24524 c -0.3001,2.56291 -2.43216,2.9673 -3.79131,0.71914 -0.50871,-0.84146 -0.77584,-1.08245 -0.70014,-0.63168 0.15122,0.90095 -0.52982,1.82582 -1.95868,2.65988 -1.79572,1.04817 -2.10703,1.00353 -2.11593,-0.30343 -0.005,-0.70614 0.39211,-1.6482 1.02782,-2.43946 0.8789,-1.09392 2.04236,-4.63587 1.84161,-5.60645 -0.12525,-0.60555 -2.2167,1.33847 -2.10105,1.95292 0.20334,1.08033 -0.26081,2.03245 -1.71588,3.51975 -1.772,1.81125 -3.23637,3.88194 -3.12524,4.41923 0.11219,0.54237 2.54634,0.96031 5.65878,0.9716 2.35487,0.009 4.54208,-0.39091 10.72254,-1.95833 z m 77.71771,-16.43551 2.47601,-0.6364 -0.7887,-0.99103 c -1.40485,-1.76523 -1.96471,-2.04277 -2.7012,-1.33906 -0.81944,0.78298 -4.70041,1.93959 -5.87379,1.75048 -0.63214,-0.10188 -1.15729,0.0683 -1.78634,0.57876 -0.49003,0.39767 -1.05382,0.75673 -1.25286,0.7979 -0.70807,0.14646 -0.62322,-1.26209 0.12578,-2.08791 l 0.76139,-0.83947 -1.23247,-2.84631 -1.23247,-2.84633 -2.29346,0.6787 c -2.87976,0.85217 -4.15698,0.50134 -4.51733,-1.24085 -0.31637,-1.52955 0.5518,-4.63984 1.97826,-7.08726 0.64511,-1.10683 1.15218,-2.1128 1.12681,-2.23548 -0.0254,-0.12267 -1.33449,1.38687 -2.90916,3.35453 -3.61816,4.52118 -4.32265,5.17734 -6.92692,6.45173 -1.16718,0.57115 -1.87166,1.07616 -1.56552,1.12223 6.3999,0.96312 8.80916,1.45525 9.16841,1.87275 0.2405,0.2795 1.06221,0.92268 1.82604,1.42932 1.06805,0.7084 1.5691,0.83398 2.16963,0.54376 1.27178,-0.61461 1.58817,0.43556 0.69687,2.31305 -1.03899,2.18861 -1.27689,3.19196 -0.89729,3.78427 0.27276,0.42559 1.09877,0.32538 5.74542,-0.69697 2.98478,-0.65668 6.54107,-1.48038 7.90289,-1.83041 z m -97.73763,17.77532 c 1.78645,-1.646 2.39192,-3.55036 1.93493,-6.08582 -0.33237,-1.84388 -0.26253,-2.27334 0.68025,-4.18355 0.90127,-1.82613 0.97856,-2.24191 0.54372,-2.92503 l -0.5069,-0.79633 -0.97916,1.35822 c -0.63656,0.88299 -1.92983,1.90148 -3.69615,2.91088 -2.95163,1.68673 -4.06558,2.77009 -4.5205,4.39629 -0.25583,0.91455 -0.1997,1.16589 0.43487,1.9474 0.8106,0.99829 1.95017,1.90621 2.30137,1.83357 0.12599,-0.0261 0.92106,-0.8281 1.76681,-1.78229 1.48341,-1.67364 1.50201,-1.72645 0.52646,-1.49554 -2.03008,0.48046 -2.74041,-0.76186 -1.31494,-2.29984 1.13484,-1.22441 2.1218,-1.37834 3.02481,-0.47176 1.40508,1.41067 0.73198,5.05839 -1.17414,6.36298 -2.21267,1.51442 -5.07633,0.62245 -8.8809,-2.76621 -1.19927,-1.06816 -2.22953,-1.86739 -2.28947,-1.77607 -0.21939,0.33428 3.0595,3.95915 4.6977,5.19339 1.8066,1.36113 4.12069,2.17869 5.40126,1.90829 0.43382,-0.0918 1.35633,-0.68947 2.04997,-1.32857 z m 26.22555,-7.61186 c 2.42268,-0.9854 5.52599,-2.52641 6.257,-3.10703 l 0.83098,-0.65999 -0.88628,-1.52838 c -0.48745,-0.84061 -0.93154,-1.56641 -0.98688,-1.61294 -0.0553,-0.0465 -0.31106,0.53288 -0.5683,1.28752 -0.53443,1.56782 -1.30276,1.87977 -2.79473,1.13467 l -1.01765,-0.50823 -0.46494,1.36396 c -0.4527,1.32807 -1.50476,2.33486 -2.30523,2.20607 -0.21795,-0.0351 -0.67665,-0.68837 -1.01935,-1.4518 -0.34268,-0.76343 -0.82293,-1.34671 -1.06717,-1.29619 -0.24426,0.0505 -0.66324,0.78378 -0.93105,1.62947 -0.82371,2.60108 -2.65455,2.66187 -2.38315,0.0791 0.27004,-2.56975 1.39981,-7.75034 2.334,-10.70265 1.655,-5.23028 4.52325,-9.19824 7.0227,-9.71522 1.45244,-0.30042 4.35593,0.92081 5.22135,2.19613 0.71845,1.05874 0.84557,3.12214 0.23918,3.88209 -0.84518,1.05921 -0.31049,1.23333 1.73165,0.56391 4.48699,-1.47084 8.29866,-3.95865 9.87603,-6.4459 0.78702,-1.241 0.8451,-1.61998 0.49207,-3.21063 -0.5209,-2.34709 -1.87364,-4.01209 -4.51327,-5.55511 -3.0933,-1.80819 -6.2849,-2.55591 -8.65679,-2.02807 l -1.9214,0.42765 2.01876,0.0167 c 2.34204,0.0194 3.43179,0.39305 5.70794,1.95701 3.0377,2.08722 3.84641,5.19159 1.66889,6.4064 -1.81316,1.01154 -2.4695,1.13151 -3.35184,0.61272 -0.84691,-0.49801 -0.84858,-0.50512 -0.35377,-1.4991 0.80322,-1.61333 0.26135,-1.70857 -3.69806,-0.64993 -3.03418,0.81126 -8.48958,3.01046 -8.79998,3.5475 -0.51987,0.89944 -9.33812,23.61627 -9.20215,23.70576 0.93724,0.61685 9.30021,-0.14204 11.52141,-1.04549 z m 70.08935,-16.97444 c -0.59056,-1.86495 -2.21823,-4.16808 -5.22057,-7.38708 -1.89027,-2.02668 -3.55235,-5.20178 -5.62846,-10.7522 -0.86628,-2.31596 -1.95518,-4.84105 -2.41978,-5.61131 -2.4484,-4.05924 -8.07384,-9.44039 -12.54923,-12.0043 -2.52224,-1.44496 -7.82754,-3.55158 -8.5618,-3.3997 -0.18513,0.0383 -1.58995,-0.46038 -3.12185,-1.10818 -6.16557,-2.60726 -10.81092,-3.26787 -15.76864,-2.24244 -3.1228,0.64592 -6.86577,2.23272 -5.61923,2.38225 0.30415,0.0364 1.86475,0.15069 3.46801,0.25379 5.45235,0.35061 18.45444,3.65701 25.07455,6.3764 4.22703,1.73636 10.24326,5.74345 12.16471,8.10228 0.83387,1.02369 1.88524,2.83538 2.33634,4.026 1.41255,3.72816 5.13151,9.50687 7.80382,12.126 1.74801,1.71322 3.58174,4.55911 3.88625,6.03134 0.12364,0.59771 0.5898,1.34569 1.03593,1.66216 0.44615,0.31647 0.9085,0.79194 1.02749,1.05658 0.11897,0.26465 0.55139,0.73225 0.9609,1.03908 0.40951,0.30687 0.78671,0.76165 0.83821,1.01065 0.0515,0.24901 0.2705,0.41616 0.48664,0.37145 0.27009,-0.0559 0.20963,-0.66044 -0.19329,-1.93277 z m -17.3713,4.63419 c 0.38652,-0.28508 -0.63729,-1.81452 -2.40574,-3.59384 l -0.72809,-0.73256 0.034,1.05613 0.034,1.05615 -4.62448,0.87289 c -4.58434,0.8653 -5.62102,0.83086 -5.83299,-0.19393 -0.0541,-0.26157 -0.23547,-0.44721 -0.40304,-0.41255 -0.46085,0.0953 -2.2405,3.27578 -2.13051,3.80753 0.0713,0.34495 1.25182,0.33173 4.57338,-0.0512 6.24112,-0.71957 11.02944,-1.47371 11.48349,-1.8086 z m -70.10524,9.10503 c 2.1412,-2.07612 4.74145,-4.94953 5.77835,-6.38536 2.1541,-2.98288 2.2744,-3.61144 2.02468,-10.57941 -0.21518,-6.00392 -0.85174,-10.16685 -2.12272,-13.8819 -1.71572,-5.01503 -4.91601,-11.34861 -5.10526,-10.10367 -0.22931,1.50832 0.35376,6.53276 1.29183,11.13255 2.12122,10.40111 2.457,16.55574 1.16204,21.29882 -0.76253,2.79297 -1.12735,3.43316 -4.11418,7.21975 -2.1333,2.70453 -3.37029,4.79062 -2.96254,4.99604 0.085,0.0429 1.9066,-1.6207 4.0478,-3.69682 z m 55.0874,-12.29601 c 5.90068,-3.24921 10.01656,-7.48943 11.09583,-11.43107 0.22883,-0.83566 0.29587,-2.48383 0.14899,-3.66261 -0.30585,-2.45453 -1.42144,-4.30818 -3.78539,-6.28965 -1.41401,-1.1852 -5.27858,-3.30028 -5.47719,-2.99764 -0.0599,0.0913 0.61483,0.88875 1.49954,1.77196 3.64404,3.63795 5.35711,8.27744 4.39287,11.89717 -0.62889,2.36079 -1.26557,2.99708 -5.56188,5.55864 -1.98964,1.18627 -3.81063,2.39885 -4.04664,2.69462 -0.49622,0.62188 -1.64679,3.87847 -1.41935,4.01737 0.084,0.0513 1.50303,-0.65013 3.15322,-1.55879 z m -75.33562,12.99658 c 0.9504,-1.55155 1.14504,-3.5411 0.60288,-6.16227 -0.49297,-2.38333 -0.52693,-2.43979 -1.23256,-2.04807 -1.08956,0.60489 -1.69552,1.34098 -2.29574,2.78877 -1.00017,2.41255 -1.8882,3.09225 -4.83694,3.70216 -2.10285,0.43495 -2.99989,0.44741 -4.365299,0.0607 -2.28727,-0.64786 -3.949698,-1.71357 -4.144856,-2.6571 l -0.15909,-0.76915 5.294875,-0.9085 c 6.5449,-1.123 8.94434,-2.22408 2.82712,-1.29734 -4.38079,0.66367 -8.218953,0.76285 -12.451082,0.32173 -1.507061,-0.15708 -2.790966,-0.20811 -2.853132,-0.11339 -0.206452,0.31456 2.580341,2.43911 5.637399,4.29776 3.139405,1.9087 8.112775,3.8238 11.235365,4.32638 1.0716,0.17248 2.70677,0.10768 3.99225,-0.1582 1.816,-0.37562 2.27209,-0.60517 2.74881,-1.38346 z m 71.94908,-22.26975 c 0.66138,-0.65283 0.90183,-3.09465 0.49732,-5.05037 -0.4329,-2.0929 -1.98161,-4.44699 -3.95461,-6.01108 l -1.08042,-0.85649 0.50285,1.35107 c 0.60652,1.62964 0.51227,4.37878 -0.15486,4.51676 -0.61561,0.12734 -3.20648,-2.56448 -6.06818,-6.30461 -4.06698,-5.31539 -8.1793,-8.89037 -12.01807,-10.4477 -1.31637,-0.53405 -2.52986,-0.94277 -2.69665,-0.90827 -0.16678,0.0345 0.77575,0.78676 2.09449,1.67169 3.93201,2.63853 8.34013,8.32513 10.93659,14.10853 0.75666,1.68536 1.06379,2.0035 2.53259,2.62324 0.91932,0.38791 3.15818,1.81649 4.97525,3.17465 3.40177,2.54264 3.81628,2.742 4.4337,2.13258 z m -56.16248,8.68967 c 1.0108,-0.65452 0.35815,-4.82909 -0.88263,-5.6457 -0.57527,-0.37862 -3.09965,1.92967 -3.35858,3.07108 -0.27283,1.20261 0.22796,1.14657 1.65119,-0.18478 0.75912,-0.71006 1.13821,-0.87361 1.48532,-0.64082 0.66302,0.44466 -0.84745,2.33411 -2.06772,2.58651 -1.24054,0.25659 -1.89332,-0.21187 -2.17189,-1.55863 -0.28798,-1.39232 -0.071,-1.6329 3.14028,-3.48151 2.74415,-1.57971 3.55301,-2.60572 3.63664,-4.61301 0.0328,-0.78718 -0.17069,-0.99651 -1.36593,-1.40545 -0.77247,-0.26427 -1.44415,-0.47231 -1.49263,-0.46228 -0.0485,0.01 0.0702,0.73412 0.26358,1.60908 0.3955,1.78918 0.35668,1.84635 -2.40615,3.54411 -1.43649,0.88272 -1.98492,1.47777 -2.46146,2.67072 -0.47613,1.19189 -0.83411,1.58065 -1.60169,1.73942 -1.38389,0.28624 -1.10579,1.09211 0.81257,2.35465 2.10588,1.38598 5.04484,1.56552 6.81919,0.41659 z m -14.00439,2.09983 c 0.79297,-0.71122 1.73569,-4.93505 1.42102,-6.36681 l -0.2649,-1.20518 -0.40527,1.40133 c -0.45496,1.57308 -1.65409,3.17032 -2.49823,3.32765 -1.14419,0.21328 -2.79512,-1.14604 -3.08313,-2.53847 -0.15329,-0.7411 -0.0919,-0.776 4.18188,-2.37851 1.37632,-0.51606 2.66445,-1.07486 2.86257,-1.24177 0.19809,-0.16691 -2.19002,0.21571 -5.30692,0.85028 -3.91487,0.79708 -5.64274,1.2716 -5.58828,1.5349 0.16604,0.80277 3.96628,5.41868 5.27507,6.40733 1.40683,1.06269 2.38747,1.12293 3.40618,0.20925 z m 109.95436,-23.73994 1.44932,-0.51569 -1.30617,-0.8098 c -0.7184,-0.44539 -1.63915,-1.22691 -2.04613,-1.73671 -0.96623,-1.21034 -2.78329,-2.48421 -3.37034,-2.36279 -0.25491,0.0527 -0.60867,-0.13067 -0.78613,-0.40756 -0.18324,-0.28592 -0.38352,-0.33614 -0.46355,-0.11625 -0.0848,0.23294 -0.71748,0.40039 -1.58809,0.42028 -1.02877,0.0235 -1.54348,0.19133 -1.78027,0.58036 -0.5296,0.87013 -0.83821,0.78214 -3.60121,-1.02671 -1.69347,-1.10867 -3.35355,-2.60573 -4.72206,-4.25838 -2.3085,-2.7878 -4.76365,-4.48925 -6.08387,-4.21617 -1.32753,0.27458 -1.20445,0.76362 0.48798,1.93907 0.86534,0.60099 2.4063,2.10761 3.42438,3.34804 1.58547,1.93173 4.29156,4.08734 6.3218,5.03578 0.70815,0.33081 0.88053,0.33773 2.10482,0.0845 0.86334,-0.17857 1.05874,-0.0529 1.46748,0.94379 0.51672,1.26001 1.30031,1.81498 1.08365,0.7675 -0.076,-0.36733 0.21401,-0.91135 0.65973,-1.23768 0.99285,-0.72691 1.80108,-0.92232 1.1823,-0.2859 -0.33144,0.34092 -0.21903,0.35332 0.44139,0.0487 0.68559,-0.31622 1.13269,-0.24644 1.97612,0.30872 1.43052,0.94148 1.43681,1.85527 0.0158,2.29553 -0.60244,0.1866 -1.08392,0.39449 -1.06999,0.46186 0.12142,0.58701 0.86896,1.20329 1.76475,1.45488 1.10904,0.31149 1.91944,0.18086 4.43828,-0.7154 z m -69.26953,10.70644 0.80767,-0.44065 -1.052,-0.19291 c -0.5786,-0.1061 -1.19705,-0.1629 -1.37433,-0.12623 -0.17729,0.0367 -0.34764,-0.0556 -0.37855,-0.2051 -0.0309,-0.14945 -0.38915,-0.22866 -0.7961,-0.17601 -0.40695,0.0526 -0.78301,0.0555 -0.83573,0.006 -0.0527,-0.0493 -1.18436,-0.9983 -2.51477,-2.10907 -3.94934,-3.29732 -7.2784,-7.72985 -7.82352,-10.41673 -0.29062,-1.43469 0.65775,-4.69379 1.9314,-6.63442 1.39417,-2.12428 3.59933,-4.49895 4.51369,-4.86066 0.35651,-0.14103 0.70573,-0.37682 0.77603,-0.52398 0.0703,-0.14718 0.34241,-0.36544 0.60469,-0.48507 0.26227,-0.1196 0.72745,-0.55281 1.03373,-0.96265 0.30628,-0.40984 0.79138,-0.79366 1.07798,-0.85294 0.84443,-0.17466 -0.11727,-0.53735 -1.71117,-0.64479 -6.94729,-0.46889 -9.6101,1.8152 -9.96362,8.54653 -0.16409,3.12442 0.50351,6.57586 2.00845,10.38356 1.19351,3.01971 3.80233,7.57927 5.70646,9.97344 1.09634,1.3785 1.20883,1.43009 2.00776,0.92057 0.57566,-0.36713 1.19879,-0.49301 1.9483,-0.39379 1.24485,0.16511 2.83738,-0.15295 4.0336,-0.80551 z m -39.81044,-4.82988 c 0.53593,-5.42651 0.21012,-9.00162 -0.93794,-10.29213 -0.44375,-0.49881 -0.58579,-0.23645 -1.11887,2.06665 l -0.6106,2.63799 -1.60786,-0.22929 c -1.38467,-0.19745 -1.71775,-0.1375 -2.39934,0.43184 -0.67151,0.5609 -0.74259,0.89735 -0.46904,2.21987 0.34842,1.68451 1.82184,3.86716 3.13103,4.6382 0.80931,0.47661 0.80915,0.47061 -0.0246,-0.91159 -0.65728,-1.08973 -0.80887,-1.65555 -0.69916,-2.60998 0.12397,-1.07869 1.36362,-2.92375 2.06134,-3.06806 0.24758,-0.0512 1.00816,4.82228 1.34702,8.6311 0.28857,3.2436 0.79215,1.91084 1.32797,-3.51458 z m 5.79799,-6.70069 c 0.86792,-1.41692 0.41351,-4.62097 -1.14769,-8.09265 -0.63414,-1.41015 -1.26956,-2.7458 -1.41203,-2.9681 -0.47479,-0.74083 0.48418,-0.57231 2.0796,0.36544 1.94759,1.14477 4.22574,3.85893 5.34698,6.37039 0.4653,1.04222 0.96696,1.86993 1.11479,1.83935 0.45824,-0.0948 0.12046,-3.23866 -0.61531,-5.72701 -0.54312,-1.83682 -0.98434,-2.64224 -1.95456,-3.56806 -1.76758,-1.68668 -4.42463,-2.81463 -7.29084,-3.09506 -2.17652,-0.21296 -2.59353,-0.1578 -3.63111,0.48026 -0.6447,0.39647 -1.20226,0.90491 -1.23903,1.12987 -0.0367,0.22493 0.72458,1.52601 1.69188,2.89122 2.51192,3.54524 3.96412,6.14295 5.03649,9.00931 0.51464,1.3756 1.036,2.48035 1.15857,2.45499 0.12257,-0.0254 0.5106,-0.51583 0.86226,-1.08995 z m 8.98329,-12.43206 c 2.10903,-3.53897 3.14827,-4.46725 6.40493,-5.72093 2.05028,-0.78927 3.10894,-1.01439 5.08599,-1.08139 2.69778,-0.0915 9.09182,0.5213 13.51032,1.29493 1.51348,0.26497 2.79934,0.40934 2.85746,0.32078 0.20646,-0.31458 -7.32539,-3.71563 -9.57308,-4.32277 -2.20862,-0.5966 -6.82939,-0.81392 -8.77024,-0.41248 -0.84073,0.1739 -4.93672,2.3158 -8.80829,4.60608 -1.53742,0.90949 -2.63818,2.43347 -2.98523,4.13307 -0.33142,1.62292 -0.18071,4.17723 0.24129,4.08995 0.19093,-0.0395 1.10753,-1.34772 2.03686,-2.90715 z"
       id="path3147"
       inkscape:connector-curvature="0" />
  </g>
</svg>
