<?xml version="1.0" encoding="UTF-8" standalone="no"?>
<!-- Created with Inkscape (http://www.inkscape.org/) -->

<svg
   xmlns:dc="http://purl.org/dc/elements/1.1/"
   xmlns:cc="http://creativecommons.org/ns#"
   xmlns:rdf="http://www.w3.org/1999/02/22-rdf-syntax-ns#"
   xmlns:svg="http://www.w3.org/2000/svg"
   xmlns="http://www.w3.org/2000/svg"
   xmlns:sodipodi="http://sodipodi.sourceforge.net/DTD/sodipodi-0.dtd"
   xmlns:inkscape="http://www.inkscape.org/namespaces/inkscape"
   width="944.07458"
   height="451.17703"
   id="svg2"
   version="1.1"
   inkscape:version="0.48.1 r9760"
   sodipodi:docname="practico_rhyno.svg">
  <defs
     id="defs4">
    <linearGradient
       id="linearGradient3931">
      <stop
         style="stop-color:#000060;stop-opacity:1;"
         offset="0"
         id="stop3933" />
      <stop
         id="stop3939"
         offset="1"
         style="stop-color:#ffffff;stop-opacity:1;" />
    </linearGradient>
    <linearGradient
       id="linearGradient3917">
      <stop
         id="stop3925"
         offset="0"
         style="stop-color:#004cea;stop-opacity:0.49803922;" />
      <stop
         style="stop-color:#00eb80;stop-opacity:0.37254903;"
         offset="0.32065219"
         id="stop3929" />
      <stop
         style="stop-color:#000080;stop-opacity:0.24705882;"
         offset="0.5"
         id="stop3927" />
      <stop
         style="stop-color:#000080;stop-opacity:0;"
         offset="1"
         id="stop3921" />
    </linearGradient>
  </defs>
  <sodipodi:namedview
     id="base"
     pagecolor="#ffffff"
     bordercolor="#666666"
     borderopacity="1.0"
     inkscape:pageopacity="0.0"
     inkscape:pageshadow="2"
     inkscape:zoom="0.49497475"
     inkscape:cx="157.34963"
     inkscape:cy="155.46342"
     inkscape:document-units="px"
     inkscape:current-layer="layer1"
     showgrid="false"
     inkscape:window-width="1320"
     inkscape:window-height="745"
     inkscape:window-x="22"
     inkscape:window-y="0"
     inkscape:window-maximized="1"
     fit-margin-top="0"
     fit-margin-left="0"
     fit-margin-right="0"
     fit-margin-bottom="0" />
  <metadata
     id="metadata7">
    <rdf:RDF>
      <cc:Work
         rdf:about="">
        <dc:format>image/svg+xml</dc:format>
        <dc:type
           rdf:resource="http://purl.org/dc/dcmitype/StillImage" />
      </cc:Work>
    </rdf:RDF>
  </metadata>
  <g
     inkscape:label="Capa 1"
     inkscape:groupmode="layer"
     id="layer1"
     transform="translate(-22.230834,-307.5863)">
    <path
       style="fill:#4d4d4d;fill-opacity:1"
       d="m 364.67269,757.59905 c 14.09881,-0.62574 19.05403,-1.8097 22.22121,-5.30938 3.85285,-4.25737 3.84025,-4.90343 -0.23017,-11.7939 -4.14188,-7.01163 -8.03639,-9.5418 -8.03639,-5.22105 0,1.13781 -4.80772,3.41483 -10.68384,5.06002 -12.62298,3.53422 -16.64316,1.39801 -19.18984,-10.19692 l -1.6462,-7.49509 -2.66773,8.02581 c -5.49059,16.5183 -20.14442,16.27653 -26.05789,-0.42995 -2.21332,-6.25295 -3.65032,-8.20975 -3.7664,-5.12888 -0.23207,6.15746 -6.00155,11.33599 -16.59244,14.89286 -13.30987,4.47001 -15.30774,3.74983 -13.57879,-4.89489 0.93415,-4.67078 4.84792,-10.35095 10.13467,-14.70873 7.30912,-6.0247 19.84895,-27.83032 19.84895,-34.51536 0,-4.17078 -16.49129,5.81235 -16.5669,10.02891 -0.13292,7.41344 -4.50522,13.06819 -16.16299,20.90411 -14.1969,9.54264 -26.71421,21.21912 -26.71421,24.9198 0,3.73571 15.52668,9.82178 36.0957,14.1486 15.56237,3.27366 30.57407,3.62329 73.59326,1.71404 z m 536.47549,-2.3811 17.24592,-0.82073 -3.86049,-7.62342 c -6.87633,-13.57884 -10.1994,-16.17693 -16.03279,-12.53502 -6.49058,4.0522 -33.73992,6.38945 -41.24143,3.53737 -4.04139,-1.53653 -7.74725,-1.13017 -12.60576,1.38227 -3.78488,1.95723 -8.00472,3.55861 -9.37743,3.55861 -4.88328,0 -2.39526,-9.18768 3.68801,-13.61905 l 6.18385,-4.50463 -4.25744,-20.48403 -4.25745,-20.48403 -16.09639,1.34947 c -20.21128,1.69445 -28.17841,-2.3678 -28.17841,-14.36749 0,-10.53506 9.99645,-29.89277 22.77841,-44.10938 5.78065,-6.42947 10.51029,-12.38127 10.51029,-13.22619 0,-0.84494 -10.72296,7.33723 -23.82879,18.1826 -30.11375,24.91977 -35.67051,28.29132 -54.63741,33.15092 -8.50051,2.17794 -13.85048,4.55109 -11.88882,5.27364 41.00874,15.10501 56.26939,21.64703 58.07425,24.89555 1.20827,2.17468 5.76292,7.54564 10.12148,11.93547 6.09459,6.13829 9.2365,7.65224 13.60518,6.55578 9.25174,-2.32205 9.90765,5.04669 1.44471,16.23005 -9.86539,13.03661 -12.81132,19.33878 -11.11103,23.76962 1.2217,3.18371 6.82166,3.65035 38.95125,3.24582 20.63842,-0.25984 45.28505,-0.84178 54.77029,-1.2932 z M 230.43644,739.09759 c 14.06649,-8.43143 20.67589,-20.18279 21.12184,-37.55411 0.32433,-12.63318 1.37361,-15.37436 10.22175,-26.70346 8.45875,-10.83052 9.53866,-13.47117 7.59726,-18.57737 l -2.26304,-5.95231 -8.33377,7.63346 c -5.41783,4.96251 -15.36421,9.92298 -28.42674,14.17699 -21.82818,7.10863 -30.67741,12.74243 -35.91054,22.86217 -2.94303,5.69121 -2.91566,7.42804 0.2121,13.45689 3.99547,7.70129 10.29013,15.25506 12.71219,15.25506 0.86891,0 7.22422,-4.21128 14.12292,-9.35842 12.10015,-9.02792 12.29537,-9.35137 5.52763,-9.15893 -14.08337,0.40041 -17.08173,-8.77617 -5.55043,-16.9872 9.18035,-6.53697 15.91825,-6.20532 20.65016,1.01649 7.36287,11.23717 -2.07859,34.41126 -16.46939,40.42413 -16.70538,6.97995 -34.42429,-2.82393 -54.95065,-30.40418 -6.47027,-8.6938 -12.19067,-15.38038 -12.712,-14.85908 -1.90822,1.90823 14.81837,30.33057 23.96434,40.72092 10.08624,11.45856 24.27215,20.02018 33.11134,19.98366 2.99458,-0.0119 9.91333,-2.701 15.37498,-5.97471 z m 183.85748,-14.44812 c 17.37063,-3.19886 40.00266,-9.13761 45.63157,-11.97395 l 6.39844,-3.2241 -3.77068,-11.30594 c -2.07386,-6.21825 -4.01804,-11.61908 -4.32037,-12.00188 -0.30231,-0.38277 -2.78622,3.09471 -5.51979,7.72774 -5.67919,9.62552 -11.18738,10.63628 -20.03532,3.67647 l -6.0351,-4.74721 -4.94076,8.37394 c -4.81071,8.15354 -13.1458,13.36625 -18.26365,11.42195 -1.39342,-0.52936 -3.53341,-5.47124 -4.75553,-10.98194 -1.22212,-5.51068 -3.60027,-10.01945 -5.28479,-10.01945 -1.68451,0 -5.45842,4.27089 -8.38649,9.49089 -9.00583,16.055 -21.19746,13.95529 -15.86946,-2.73314 5.30117,-16.60447 19.85977,-49.27942 30.07669,-67.50346 18.10028,-32.28566 42.49763,-54.57584 59.73511,-54.57584 10.01686,0 27.5487,12.03306 31.52768,21.63913 3.30319,7.97461 1.32134,21.77722 -3.72867,25.96837 -7.03858,5.8415 -3.74051,7.72212 10.68108,6.0905 31.68708,-3.58498 60.299,-14.80976 74.13357,-29.08341 6.90262,-7.12171 7.8052,-9.54556 7.64634,-20.53432 -0.23445,-16.2145 -6.90319,-29.06008 -22.2499,-42.8581 C 538.9796,521.3263 518.89451,512.0272 502.48585,512.27321 l -13.29237,0.19925 13.32829,2.86858 c 15.46277,3.32802 22.15872,7.28462 35.0729,20.72445 17.23496,17.93645 18.33677,39.54602 2.27376,44.59506 -13.37525,4.2042 -17.88014,4.09993 -23.00581,-0.53245 -4.91988,-4.4464 -4.92124,-4.49569 -0.28874,-10.38496 7.51909,-9.55899 4.06562,-10.92832 -23.56842,-9.3452 -21.17662,1.2132 -60.26473,8.2861 -63.05221,11.40917 -4.66862,5.23068 -94.06424,143.2306 -93.28733,144.00751 5.35475,5.35478 61.70209,11.76763 77.628,8.83482 z m 486.76205,-16.36261 c -1.35462,-13.12504 -8.96874,-30.56116 -24.42166,-55.92486 -9.72912,-15.96892 -16.37799,-39.21145 -22.5159,-78.70903 -2.56109,-16.48069 -6.30844,-34.64685 -8.32743,-40.36927 -10.63992,-30.15678 -40.48307,-73.38533 -66.57419,-96.43447 -14.70436,-12.98999 -46.90969,-34.15247 -51.97362,-34.15247 -1.27676,0 -9.8855,-5.2131 -19.13056,-11.58468 -37.21003,-25.64466 -67.02878,-36.35449 -101.21982,-36.35461 -21.5365,-4e-5 -48.46156,5.3674 -40.42198,8.05806 1.96165,0.6565 12.12659,3.54291 22.58876,6.41425 35.58002,9.76488 117.04742,49.36737 157.11013,76.37357 25.58055,17.24378 59.88792,51.93045 69.36885,70.13583 4.1146,7.90086 8.5895,21.30372 9.94426,29.78413 4.24214,26.55472 20.93279,69.80459 35.02351,90.75516 9.21707,13.70424 17.45155,35.00682 17.45155,45.14708 0,4.11691 2.05986,9.69424 4.57748,12.39407 2.51763,2.69983 4.92511,6.47199 5.34997,8.38257 0.42488,1.9106 2.64498,5.58984 4.93357,8.17611 2.2886,2.58624 4.16109,6.1055 4.16109,7.82056 0,1.71505 1.2197,3.11829 2.71041,3.11829 1.8626,0 2.28977,-4.07591 1.36558,-13.03029 z m -121.22593,6.8769 c 2.9463,-1.35497 -1.73263,-12.85588 -10.99438,-27.02441 l -3.81329,-5.83351 -1.21994,7.0224 -1.21993,7.02239 -31.77846,-0.55228 c -31.50259,-0.54748 -38.31174,-2.19147 -38.31174,-9.24991 0,-1.80154 -0.9455,-3.27551 -2.10109,-3.27551 -3.17836,0 -19.29879,18.57592 -19.29879,22.23842 0,2.37598 7.82517,3.90138 30.31649,5.90979 42.26047,3.77372 74.96008,5.33429 78.42113,3.74262 z M 303.72789,679.52619 c 17.00102,-10.7877 38.12871,-26.21447 46.95043,-34.28167 18.32676,-16.75934 19.98218,-20.74675 27.86244,-67.11218 6.79,-39.95054 8.27467,-68.31681 4.95091,-94.59158 -4.48681,-35.46889 -16.98819,-81.67517 -19.94287,-73.71071 -3.57973,9.64933 -6.59687,43.63295 -6.68506,75.29668 -0.19926,71.59861 -6.39778,112.70934 -21.45031,142.26875 -8.86376,17.40618 -12.15216,21.13625 -37.08572,42.06661 -17.80841,14.94922 -28.84306,27.03803 -26.42728,28.95196 0.50409,0.39937 14.82645,-8.10016 31.82746,-18.88786 z m 381.14546,-5.95654 c 43.46947,-13.39993 76.4905,-35.78399 89.02031,-60.34448 2.65649,-5.20709 5.35447,-16.0019 5.99556,-23.98843 1.33492,-16.63039 -3.50753,-30.39805 -16.43111,-46.7154 -7.73032,-9.76032 -30.39569,-29.01039 -32.12326,-27.2828 -0.52154,0.52151 2.85051,6.71029 7.49343,13.75282 19.12367,29.00744 24.10663,61.99228 12.77787,84.58365 -7.3886,14.73403 -12.46969,18.06706 -44.38782,29.11688 -14.78148,5.11724 -28.48344,10.63862 -30.44883,12.26974 -4.13256,3.42971 -16.19678,23.36793 -14.88257,24.59607 0.48583,0.45401 10.82972,-2.24062 22.98642,-5.98805 z M 168.85627,656.49063 c 8.4079,-8.94979 12.41678,-21.82512 12.41678,-39.87896 0,-16.41563 -0.14742,-16.83492 -5.34997,-15.21155 -8.03334,2.50673 -13.04786,6.54087 -18.99793,15.28372 -9.91494,14.56873 -16.71779,17.84493 -37.05388,17.84493 -14.50239,0 -20.452074,-1.14316 -28.953254,-5.56302 -14.24083,-7.40398 -23.77764,-16.71437 -23.77764,-23.21309 l 0,-5.29763 36.260904,1.23299 c 44.82145,1.52405 62.19655,-2.47062 20.47208,-4.70669 -29.880584,-1.60135 -55.400294,-6.18994 -82.786404,-14.88549 -9.75218,-3.09649 -18.1736,-5.18759 -18.71431,-4.64689 -1.79566,1.79564 13.72876,19.63586 31.40432,36.08892 18.15173,16.89629 48.423834,36.34029 68.387804,43.926 6.85114,2.60322 17.75419,4.40918 26.61949,4.40918 12.52406,0 15.85448,-0.89306 20.07201,-5.38242 z m 506.305,-48.79802 c 5.2672,-3.40845 10.19773,-19.20848 10.19773,-32.67882 0,-14.41529 -7.02234,-32.08015 -17.93128,-45.10663 l -5.97376,-7.1333 1.4774,9.61095 c 1.78202,11.59255 -2.60198,29.62216 -7.20279,29.62216 -4.24566,0 -17.69834,-21.31937 -31.50813,-49.93304 -19.62613,-40.66502 -41.93298,-69.89644 -65.19061,-85.42728 -7.97544,-5.32584 -15.44189,-9.6833 -16.5921,-9.6833 -1.15022,0 4.05418,6.25642 11.56532,13.90319 22.3953,22.79961 43.76983,66.38262 53.03041,108.12993 2.69869,12.16578 4.29479,14.68671 13.16102,20.78684 5.54942,3.81809 18.40211,16.31281 28.56149,27.76603 19.01973,21.44191 21.48835,23.3251 26.4053,20.14327 z m -383.32219,-19.3325 c 7.58031,-2.9422 8.97456,-31.40739 1.88561,-38.49633 -3.28671,-3.28672 -23.13947,8.51096 -26.41337,15.69638 -3.44942,7.57065 -0.0616,7.88459 11.17307,1.03535 5.99187,-3.65294 8.72273,-4.21533 10.69994,-2.20348 3.77667,3.84285 -8.79766,14.25929 -17.21328,14.25929 -8.55546,0 -12.23179,-3.98602 -12.23179,-13.26213 0,-9.58987 1.76428,-10.88247 25.53098,-18.70553 20.30962,-6.68513 27.06262,-12.35707 30.36155,-25.50112 1.29374,-5.15463 0.23445,-6.81528 -7.11111,-11.14933 -4.74718,-2.80091 -8.90484,-5.09258 -9.2392,-5.09258 -0.33439,0 -0.54071,4.94471 -0.45853,10.98822 0.16811,12.35814 -0.16692,12.68269 -20.76145,20.122 -10.70783,3.86795 -15.14892,7.04907 -19.93251,14.27759 -4.77933,7.22205 -7.67863,9.30076 -12.97229,9.30076 -9.54409,0 -8.80726,5.70283 2.15292,16.66299 12.03153,12.03154 31.22304,17.23263 44.52946,12.06792 z m -95.49172,-5.26309 c 6.21733,-3.61434 18.23003,-30.2253 18.10744,-40.11216 l -0.1032,-8.32218 -4.59724,8.70219 c -5.16077,9.7689 -15.27621,18.68064 -21.07422,18.56649 -7.85901,-0.1548 -16.91812,-11.38835 -16.91812,-20.97902 0,-5.10444 0.45354,-5.2511 30.91093,-9.99707 9.80828,-1.52838 19.09197,-3.45943 20.63046,-4.29124 1.53846,-0.83182 -14.77895,-1.56716 -36.2609,-1.6341 -26.98166,-0.0842 -39.05815,0.69001 -39.05815,2.50355 0,5.52918 18.81881,41.20976 26.12225,49.52792 7.85048,8.9412 14.25356,10.67885 22.24075,6.03562 z m 759.66743,-6.58614 10.29063,-1.42621 -7.53071,-7.13329 c -4.1419,-3.92331 -9.16233,-10.34328 -11.15654,-14.26659 -4.73451,-9.31448 -15.00932,-20.21099 -19.05787,-20.21099 -1.75802,0 -3.84672,-1.6947 -4.64156,-3.76602 -0.82078,-2.13889 -2.07662,-2.74425 -2.90672,-1.40112 -0.87928,1.42269 -5.29286,1.66429 -11.07793,0.60642 -6.83603,-1.25006 -10.4697,-0.84496 -12.56787,1.40112 -4.69287,5.02374 -6.61349,4.02099 -22.41234,-11.70142 -9.6834,-9.63656 -18.61454,-21.79278 -25.40458,-34.57837 -11.45395,-21.56768 -25.3638,-36.16011 -34.46868,-36.16011 -9.15535,0 -9.01037,3.39837 0.57484,13.47453 4.90086,5.15187 13.03122,17.20849 18.06749,26.79252 7.8431,14.92544 22.79132,32.86051 34.92108,41.8987 4.23087,3.15253 5.36143,3.43375 13.80475,3.43375 5.95411,0 7.07446,1.09698 8.41426,8.23876 1.69375,9.02842 6.11694,13.76462 6.11694,6.54982 0,-2.52995 2.6621,-5.72711 6.05628,-7.27363 7.56065,-3.44486 13.17324,-3.63149 8.2103,-0.27302 -2.65834,1.79892 -1.93188,2.03442 2.85256,0.92474 4.96677,-1.15198 7.82829,-0.0797 12.6469,4.73886 8.17299,8.17299 6.96459,14.2172 -3.03567,15.18385 -4.23955,0.40981 -7.70826,1.12478 -7.70826,1.58885 0,4.04305 4.10091,9.13494 9.68111,12.02059 6.90857,3.57255 12.44698,3.81691 30.33159,1.33826 z m -472.76572,-23.91834 5.94441,-1.80707 -6.69364,-2.71144 c -3.68149,-1.49126 -7.69397,-2.71141 -8.91662,-2.71141 -1.22262,0 -2.22297,-0.8423 -2.22297,-1.87178 0,-1.02945 -2.26092,-2.04207 -5.02429,-2.25022 -2.76336,-0.20805 -5.2544,-0.70336 -5.53567,-1.10045 -0.28126,-0.39709 -6.46723,-8.21192 -13.74661,-17.36631 -21.60876,-27.17477 -37.56239,-61.00027 -37.49206,-79.49221 0.0376,-9.87331 10.77099,-30.10437 21.84901,-41.1824 12.12638,-12.12638 29.95885,-24.79872 36.50082,-25.93864 2.55072,-0.44448 5.18281,-1.52484 5.84906,-2.40081 0.66627,-0.87597 2.76448,-1.94596 4.6627,-2.37776 1.89821,-0.4318 5.56732,-2.65758 8.15359,-4.94618 2.58625,-2.2886 6.3195,-4.16108 8.29611,-4.16108 5.82365,0 -0.0442,-3.70941 -10.43496,-6.59659 -45.30513,-12.58845 -66.0403,-1.13973 -77.58643,42.83858 -5.35927,20.41301 -5.66541,44.12222 -0.92103,71.32852 3.76257,21.57609 14.77899,55.25671 24.097,73.6719 5.36504,10.60295 6.03842,11.09731 12.01921,8.82341 4.30939,-1.63843 8.60273,-1.61857 13.42393,0.0621 8.0071,2.79128 18.97444,2.86622 27.77844,0.18974 z M 226.56632,466.30197 c 10.96762,-35.11063 13.70341,-59.1697 7.87591,-69.26219 -2.25243,-3.90092 -3.55064,-2.36212 -10.22676,12.12188 l -7.64684,16.59004 -10.32014,-3.71112 c -8.88746,-3.1959 -11.17235,-3.25501 -16.45891,-0.42573 -5.20842,2.78745 -6.13876,4.91253 -6.13876,14.02169 0,11.6024 6.75884,28.0321 14.36264,34.91345 4.70039,4.25379 4.70755,4.2139 1.0846,-6.05469 -2.85637,-8.09577 -3.08482,-12.04024 -1.05376,-18.19439 2.29552,-6.95546 13.018,-17.44872 17.8299,-17.44872 1.7075,0 0.0711,33.22906 -2.89823,58.84966 -2.52866,21.81867 2.62498,13.70357 13.59035,-21.39988 z m 47.51169,-36.33773 c 7.67832,-8.1732 9.05612,-29.95713 3.47995,-55.02086 -2.26496,-10.18058 -4.64023,-19.87078 -5.27839,-21.53379 -2.12665,-5.54195 3.98508,-3.11872 13.25372,5.25493 11.31459,10.22206 22.66842,31.26191 26.64834,49.38221 1.65162,7.51968 3.83712,13.67214 4.85665,13.67214 3.16029,0 5.22704,-21.22722 3.76486,-38.66826 -1.07934,-12.87436 -2.89555,-18.79708 -8.04576,-26.23773 -9.3828,-13.55556 -25.41242,-24.63586 -43.98473,-30.40394 -14.1033,-4.38013 -16.93672,-4.58552 -24.67156,-1.78855 -4.80613,1.7379 -9.18915,4.33445 -9.74006,5.77009 -0.5509,1.43563 2.70454,11.0694 7.23435,21.40834 11.76308,26.84845 17.81382,45.99066 20.98498,66.38831 1.52186,9.78909 3.45869,17.79835 4.30401,17.79835 0.84534,0 4.08248,-2.70956 7.19364,-6.02124 z m 76.41812,-69.84229 c 18.78933,-20.49407 26.93227,-25.20554 50.18552,-29.03707 14.63927,-2.41217 21.94875,-2.45271 35.11577,-0.19473 17.96731,3.08105 59.41651,15.86448 87.58041,27.01085 9.64702,3.81797 17.95362,6.52817 18.45915,6.02266 1.79574,-1.79576 -43.36435,-34.55003 -57.39903,-41.63106 -13.79081,-6.958 -44.0534,-14.7063 -57.43848,-14.7063 -5.79813,0 -35.81735,8.55156 -64.55526,18.38984 -11.41203,3.90683 -20.77662,12.46911 -25.3969,23.22103 -4.41187,10.26687 -6.90935,27.34428 -3.99897,27.34428 1.31678,0 9.16828,-7.38873 17.44779,-16.41941 z"
       id="path3147"
       inkscape:connector-curvature="0" />
  </g>
</svg>
